# xmcd CD database file
#
# Track frame offsets:
#	150
#	22310
#	43067
#	55880
#	91070
#	124510
#	141457
#	162130
#
# Disc length: 2541 seconds
#
# Revision: 4
# Processed by: cddbd v1.5.2PL0 Copyright (c) Steve Scherf et al.
# Submitted via: CDex 1.70beta2
#
DISCID=6a09eb08
DTITLE=Hannes Wader - Es ist an der Zeit
DYEAR=1991
DGENRE=Blues
TTITLE0=Nun muss ich gehen
TTITLE1=Emma Klein
TTITLE2=Blick zurck
TTITLE3=Erinnerung
TTITLE4=Ballade vom Fisch
TTITLE5=Begegnung
TTITLE6=Hafenmelodie
TTITLE7=Es ist an der Zeit
EXTD=YEAR: 1991
EXTT0=
EXTT1=
EXTT2=
EXTT3=
EXTT4=
EXTT5=
EXTT6=
EXTT7=
PLAYORDER=
